<?xml version="1.0" standalone="no"?>
<!DOCTYPE svg PUBLIC "-//W3C//DTD SVG 20010904//EN"
 "http://www.w3.org/TR/2001/REC-SVG-20010904/DTD/svg10.dtd">
<svg version="1.0" xmlns="http://www.w3.org/2000/svg"
 width="984.000000pt" height="984.000000pt" viewBox="0 0 984.000000 984.000000"
 preserveAspectRatio="xMidYMid meet">
<metadata>
Created by potrace 1.14, written by Peter Selinger 2001-2017
</metadata>
<g transform="translate(0.000000,984.000000) scale(0.100000,-0.100000)"
fill="#000000" stroke="none">
<path d="M1438 9826 c-27 -7 -48 -12 -48 -10 0 2 -25 -8 -56 -22 -160 -71
-282 -204 -335 -366 l-24 -73 0 -4445 0 -4445 28 -70 c59 -147 162 -265 288
-327 80 -39 98 -46 144 -56 37 -9 6522 -9 6550 -1 11 3 39 11 63 18 128 36
263 149 333 280 71 131 72 140 75 586 1 220 2 403 3 406 1 3 65 6 144 6 91 0
151 4 165 12 12 6 22 9 22 6 0 -13 62 59 71 82 24 63 1 135 -57 179 -37 29
-39 29 -188 31 -83 0 -153 1 -156 2 -3 1 -5 233 -5 516 l0 515 25 0 c283 4
285 4 322 30 85 58 90 177 10 247 -34 29 -75 36 -224 36 -71 0 -128 3 -129 6
-5 29 -2 1006 3 1014 4 7 52 12 135 13 191 2 181 0 223 42 64 64 66 153 5 216
-41 43 -67 48 -238 50 l-132 1 0 505 c-1 278 1 510 3 516 2 8 50 12 147 12
114 0 151 4 180 17 118 57 109 230 -15 282 -14 5 -87 10 -164 10 -83 1 -141 5
-145 11 -8 14 -7 1010 2 1018 4 4 71 8 149 8 80 1 155 7 169 13 32 14 77 66
85 99 10 40 -2 99 -27 133 -40 54 -74 63 -237 62 l-147 -1 0 510 c0 280 4 512
9 517 4 4 69 9 145 9 109 1 145 5 174 19 105 49 116 189 21 262 -35 26 -39 27
-187 29 -84 1 -154 2 -157 3 -3 0 -5 216 -6 479 0 262 -3 497 -6 522 -9 66
-49 168 -90 231 -79 118 -193 201 -336 245 l-76 24 -3231 -1 c-2593 0 -3239
-3 -3277 -13z m6502 -304 c14 -5 27 -9 30 -8 9 2 75 -47 104 -78 16 -17 38
-51 50 -76 20 -44 21 -61 24 -515 1 -258 0 -479 -2 -490 -5 -19 -13 -20 -150
-20 l-145 -1 -38 -30 c-92 -74 -78 -208 27 -262 17 -9 74 -14 167 -15 l142 -1
-2 -516 -2 -515 -136 -1 c-108 -1 -144 -5 -174 -19 -65 -32 -99 -114 -75 -186
28 -84 81 -106 259 -105 l130 1 0 -517 0 -518 -132 -1 c-160 -1 -171 -2 -205
-34 -15 -14 -30 -25 -33 -25 -8 0 -18 -32 -26 -79 -8 -49 20 -111 64 -141 34
-23 46 -25 184 -28 l148 -3 0 -515 c0 -283 -3 -514 -7 -515 -4 0 -68 -2 -142
-3 -145 -2 -174 -10 -217 -60 -32 -36 -40 -113 -18 -157 41 -78 75 -91 245
-93 l135 -1 2 -516 2 -516 -122 1 c-174 1 -221 -16 -263 -95 -34 -68 6 -172
80 -203 22 -9 71 -13 156 -12 69 1 130 0 137 -2 9 -3 12 -128 12 -518 l0 -514
-22 -1 c-12 0 -74 -1 -137 -1 -129 0 -163 -10 -203 -57 -70 -84 -30 -217 76
-246 4 -2 70 -3 146 -4 l139 -1 -2 -392 c-1 -381 -2 -394 -23 -438 -31 -65
-84 -117 -148 -145 l-56 -25 -3202 0 c-3326 0 -3221 -1 -3297 39 -49 26 -110
102 -127 160 -15 52 -16 405 -16 4411 0 4034 1 4359 16 4411 19 64 79 139 127
159 17 7 30 16 30 20 0 3 6 7 13 8 25 3 102 14 104 16 8 7 6354 -5 6373 -12z"/>
<path d="M2273 8511 c-46 -21 -91 -67 -110 -112 -9 -22 -12 -159 -13 -565 0
-511 1 -537 19 -577 24 -51 36 -66 81 -97 l35 -25 2329 -3 c1655 -1 2340 1
2369 9 48 13 119 80 135 127 8 23 12 199 12 563 0 473 -2 534 -17 572 -18 45
-56 82 -111 110 -34 16 -166 17 -2361 17 -2260 0 -2327 -1 -2368 -19z"/>
<path d="M3037 5844 c-3 -3 -33 -7 -67 -9 -191 -11 -398 -147 -525 -345 -75
-118 -130 -279 -153 -450 -14 -110 -6 -480 12 -508 3 -5 7 -21 10 -36 15 -85
69 -218 111 -275 49 -66 149 -150 220 -186 44 -22 82 -42 85 -43 3 -2 5 -502
6 -1110 1 -1026 4 -1217 20 -1297 9 -39 51 -118 83 -152 42 -45 79 -64 133
-69 28 -2 53 -6 55 -8 3 -2 17 -1 31 4 15 4 36 4 48 0 14 -6 31 0 59 19 77 52
111 130 130 301 2 19 7 53 10 75 3 22 8 67 12 100 3 33 6 475 6 983 0 919 0
923 -20 944 -28 27 -64 30 -94 7 l-24 -18 -1 -953 c-1 -524 -4 -968 -7 -986
-6 -34 -13 -81 -22 -154 -10 -76 -16 -102 -32 -140 l-16 -38 -68 0 c-60 0 -71
3 -94 26 -39 39 -54 85 -61 192 -4 53 -7 601 -8 1217 -1 616 -5 1130 -9 1142
-5 13 -20 26 -35 29 -43 11 -134 53 -177 82 -119 82 -195 225 -222 422 -9 64
-9 355 0 420 48 344 230 590 483 655 95 24 270 9 309 -26 5 -5 15 -9 21 -9 44
0 188 -133 243 -224 61 -102 119 -279 126 -388 1 -25 5 -50 8 -55 7 -11 1
-310 -7 -348 -4 -16 -9 -43 -12 -60 -26 -143 -96 -291 -181 -380 -66 -70 -174
-120 -276 -129 -29 -2 -59 -7 -68 -11 -17 -7 -36 -42 -33 -62 1 -7 2 -19 3
-27 1 -18 58 -45 85 -41 141 21 119 17 182 38 61 21 127 61 185 114 45 41 119
135 119 153 0 5 5 10 10 10 6 0 10 9 10 19 0 11 4 21 8 23 10 4 60 123 66 158
3 14 12 52 20 85 22 90 28 155 29 310 0 152 -3 187 -27 313 -37 194 -108 345
-224 476 -55 62 -180 151 -242 171 -63 20 -125 35 -163 39 -27 3 -52 8 -56 11
-5 2 -11 2 -14 -1z"/>
<path d="M4334 5826 l-28 -23 1 -669 c0 -714 2 -766 41 -884 34 -103 86 -179
157 -227 l30 -21 -1 -1203 c0 -691 3 -1224 8 -1251 13 -65 59 -125 116 -151
69 -30 269 -34 321 -5 54 30 85 63 117 126 l29 57 3 1072 c2 981 1 1075 -14
1098 -21 33 -74 34 -104 3 -20 -22 -20 -29 -20 -1072 0 -1010 -1 -1053 -19
-1093 -29 -64 -51 -73 -159 -70 -80 3 -96 6 -115 25 l-22 23 -1 1252 c0 923
-3 1258 -12 1273 -6 12 -26 27 -44 34 -48 19 -104 82 -127 144 -41 111 -43
153 -45 865 l-1 684 -24 15 c-36 24 -58 24 -87 -2z"/>
<path d="M4807 5833 c-15 -7 -30 -21 -35 -31 -5 -9 -8 -291 -8 -625 l1 -609
24 -19 c31 -26 63 -24 92 5 l24 24 0 610 c-1 572 -2 612 -18 630 -25 27 -49
32 -80 15z"/>
<path d="M5220 5818 c-11 -12 -20 -28 -21 -35 -3 -44 -2 -71 3 -85 4 -9 4 -19
1 -22 -6 -6 -8 -119 -3 -141 1 -5 1 -14 0 -20 -2 -14 -3 -128 0 -140 1 -5 1
-14 0 -20 -2 -14 -3 -128 0 -140 1 -5 1 -14 0 -20 -2 -14 -3 -128 0 -140 1 -5
1 -14 0 -20 -2 -14 -3 -128 0 -140 1 -5 1 -14 0 -20 -1 -8 -1 -109 1 -150 0
-5 -1 -31 -3 -58 -2 -26 0 -47 4 -47 4 0 5 -6 3 -12 -2 -7 -7 -58 -9 -113 -3
-55 -8 -111 -11 -125 -3 -14 -8 -36 -11 -50 -3 -14 -14 -44 -24 -67 -10 -23
-16 -43 -14 -46 2 -2 -19 -29 -48 -59 -56 -58 -108 -82 -198 -92 -73 -8 -105
-71 -60 -116 19 -19 30 -22 75 -22 62 -1 172 36 220 72 75 57 165 195 178 271
2 13 7 31 10 39 13 29 25 146 26 254 1 60 4 113 7 118 3 4 2 8 -3 8 -4 0 -8
255 -8 566 0 548 -1 566 -19 580 -29 21 -72 17 -96 -8z"/>
<path d="M5889 5801 l-24 -19 0 -2049 c0 -1126 3 -2068 6 -2093 22 -137 48
-188 119 -226 29 -16 59 -19 172 -20 123 -2 142 1 185 21 61 28 81 52 104 117
17 49 18 103 18 731 0 483 -3 685 -11 703 -20 42 -96 45 -118 4 -8 -14 -11
-229 -11 -686 0 -433 -4 -675 -11 -695 -17 -49 -42 -59 -144 -59 -51 0 -100 3
-109 6 -16 7 -43 50 -52 87 -6 25 -11 3986 -5 4004 4 12 113 -50 120 -68 2 -5
9 -9 16 -9 19 0 156 -138 213 -214 116 -156 209 -398 238 -621 2 -16 6 -43 9
-60 4 -16 9 -77 12 -135 2 -58 7 -110 9 -117 2 -7 0 -15 -4 -18 -5 -3 -5 -21
-1 -40 4 -19 5 -37 1 -39 -3 -2 -4 -93 -1 -201 3 -108 2 -199 -1 -201 -4 -2
-3 -20 1 -39 4 -19 5 -37 1 -39 -3 -2 -4 -66 -1 -141 3 -75 2 -139 -3 -142 -4
-2 -5 -8 -3 -12 7 -10 10 -201 3 -207 -2 -3 -92 -5 -198 -6 -107 -1 -206 -5
-221 -10 -54 -19 -51 -106 4 -124 32 -10 478 -11 510 -1 14 5 31 20 37 35 11
28 9 1376 -2 1418 -3 12 -8 45 -12 74 -8 60 -12 84 -19 108 -3 9 -8 33 -11 52
-23 144 -134 412 -214 516 -9 12 -23 32 -31 44 -44 65 -141 161 -231 230 -92
69 -260 160 -297 160 -11 0 -30 -9 -43 -19z"/>
</g>
</svg>
